<?xml version="1.0" standalone="no"?><!DOCTYPE svg PUBLIC "-//W3C//DTD SVG 1.1//EN" "http://www.w3.org/Graphics/SVG/1.1/DTD/svg11.dtd"><svg t="1691745059307" class="icon" viewBox="0 0 1024 1024" version="1.1" xmlns="http://www.w3.org/2000/svg" p-id="24551" xmlns:xlink="http://www.w3.org/1999/xlink" width="200" height="200"><path d="M674.133333 932.266667H347.733333c-49.066667 0-96-25.6-119.466666-68.266667L66.133333 582.4c-25.6-42.666667-25.6-96 0-138.666667l164.266667-281.6c25.6-42.666667 70.4-68.266667 119.466667-68.266666h326.4c49.066667 0 96 25.6 119.466666 68.266666l162.133334 281.6c25.6 42.666667 25.6 96 0 138.666667l-162.133334 283.733333c-25.6 40.533333-70.4 66.133333-121.6 66.133334zM347.733333 155.733333c-25.6 0-51.2 14.933333-64 38.4L121.6 475.733333c-12.8 23.466667-12.8 51.2 0 74.666667L283.733333 832c12.8 23.466667 38.4 36.266667 64 38.4h326.4c25.6 0 51.2-14.933333 64-38.4l164.266667-281.6c12.8-23.466667 12.8-51.2 0-74.666667L740.266667 192c-12.8-23.466667-38.4-36.266667-64-38.4H347.733333z" p-id="24552"></path><path d="M512 672c-12.8 0-23.466667-2.133333-36.266667-4.266667-59.733333-12.8-106.666667-59.733333-119.466666-119.466666-19.2-85.333333 34.133333-172.8 121.6-192 23.466667-4.266667 46.933333-4.266667 70.4 0 59.733333 12.8 106.666667 59.733333 119.466666 119.466666 19.2 85.333333-34.133333 172.8-119.466666 192-12.8 2.133333-23.466667 4.266667-36.266667 4.266667z m0-256c-25.6 0-49.066667 10.666667-68.266667 27.733333-23.466667 23.466667-34.133333 57.6-25.6 89.6 12.8 51.2 64 83.2 115.2 70.4 51.2-12.8 83.2-64 70.4-115.2-6.4-34.133333-34.133333-61.866667-70.4-70.4-6.4-2.133333-14.933333-2.133333-21.333333-2.133333z" p-id="24553"></path></svg>
